<svg id="Capa_1" data-name="Capa 1" xmlns="http://www.w3.org/2000/svg" viewBox="0 0 193.97 43.59"><defs><style>.cls-1{fill:#008cff;}</style></defs><circle class="cls-1" cx="182.95" cy="5.5" r="5.12" transform="translate(3.63 42.18) rotate(-13.28)"/><path class="cls-1" d="M92.27,14.58a3.92,3.92,0,0,0-4.13.49L62.06,36.22H44.64V13.84H26.56L9.38,29.8V15.64H1.59V38.73a3.89,3.89,0,0,0,6.54,2.85l9.07-8.42,9.65,10.23h10.7L22.91,27.86,36.85,14.91v25.2a3.88,3.88,0,0,0,1.82,3.28H65.51a3.19,3.19,0,0,0,.38-.26L86.7,26.26V36.8l7.78-3.32V18.1A3.91,3.91,0,0,0,92.27,14.58Z"/><rect class="cls-1" x="179.05" y="15.64" width="7.78" height="26.86"/><path class="cls-1" d="M167.88,15,146.94,30.83V22.66c0-6.29-2.74-8.94-5-10-4.95-2.41-11.72.64-16.49,3.58a8,8,0,0,0-3.66-3.58c-1.52-.74-6.61-2.32-15.65,3l-2,1.35a12.17,12.17,0,0,0-5.45,10.15V42.5h7.78V28.56a6.92,6.92,0,0,1,3.38-6c3.77-2.22,7.38-3.57,8.58-3,.13.06.64.78.64,3l0,19.84,7.78,0,0-16.06a3.41,3.41,0,0,1,1.53-2.85c4.33-2.84,8.8-4.67,10.19-4,.14.06.65.78.65,3.05l0,16a3.9,3.9,0,0,0,2.15,3.49,3.83,3.83,0,0,0,1.74.41,3.9,3.9,0,0,0,2.35-.78l21-15.8V36.39l7.79-3.32V18.26a4,4,0,0,0-1.1-2.83A3.91,3.91,0,0,0,167.88,15Z"/></svg>